<?xml version="1.0" encoding="iso-8859-1"?>
<!-- Generator: Adobe Illustrator 19.0.0, SVG Export Plug-In . SVG Version: 6.00 Build 0)  -->
<svg version="1.1" id="Layer_1" xmlns="http://www.w3.org/2000/svg" xmlns:xlink="http://www.w3.org/1999/xlink" x="0px" y="0px"
	 viewBox="0 0 460 460" style="enable-background:new 0 0 460 460;" xml:space="preserve">
<g id="XMLID_2599_">
	<path id="XMLID_2163_" style="fill:#A3947F;" d="M105,20L85,30V6.18C85,2.767,87.767,0,91.18,0c2.341,0,4.481,1.323,5.528,3.416
		L105,20z"/>
	<path id="XMLID_2011_" style="fill:#968368;" d="M385,300v60c0,5.523-4.477,10-10,10v70c0,11.046-8.954,20-20,20c0,0-8.954,0-20,0
		v-90c-5.523,0-10-4.477-10-10v-60h20h20H385z"/>
	<path id="XMLID_2017_" style="fill:#49443C;" d="M337.361,440c-7.575,0-14.501,4.28-17.888,11.056L315,460h20
		c11.046,0,20-8.954,20-20H337.361z"/>
	<path id="XMLID_2028_" style="fill:#B7A688;" d="M345,300v60c0,5.523,4.477,10,10,10v90c11.046,0,20-8.954,20-20v-70
		c5.523,0,10-4.477,10-10v-60H345z"/>
	<path id="XMLID_2030_" style="fill:#605B52;" d="M357.361,440c-7.575,0-14.501,4.28-17.888,11.056L335,460h20
		c11.046,0,20-8.954,20-20H357.361z"/>
	<path id="XMLID_2021_" style="fill:#968368;" d="M175,300h20v60c0,5.523-4.477,10-10,10v70c0,11.046-8.954,20-20,20
		c0,0-8.954,0-20,0v-90c-5.523,0-10-4.477-10-10v-60h20H175z"/>
	<path id="XMLID_2027_" style="fill:#49443C;" d="M147.361,440H165c0,11.046-8.954,20-20,20h-20l4.472-8.944
		C132.86,444.28,139.785,440,147.361,440z"/>
	<path id="XMLID_2026_" style="fill:#B7A688;" d="M195,300v60c0,5.523-4.477,10-10,10v70c0,11.046-8.954,20-20,20v-90
		c-5.523,0-10-4.477-10-10v-60H195z"/>
	<path id="XMLID_2146_" style="fill:#D1C19F;" d="M425,150v120c0,33.137-26.863,60-60,60H185c-33.137,0-60-26.863-60-60l0,0
		c-33.137,0-60-26.863-60-60V100c0-5.523-4.477-10-10-10H45c-5.523,0-10-4.477-10-10v-5.474c0-8.903,5.03-17.041,12.993-21.022
		L75.182,39.91c2.036-1.018,3.322-3.099,3.322-5.375c0-1.076,0.281-2.138,0.832-3.063C83.551,24.395,91.205,20,99.526,20H105V6.396
		c0-2.926,1.939-5.599,4.793-6.241c2.851-0.642,5.664,0.759,6.915,3.261C122.161,14.322,125,26.348,125,38.541V90v50
		c0,5.523,4.477,10,10,10H425z"/>
	<path id="XMLID_2031_" style="fill:#B7A688;" d="M425,210v30v30c0,33.137-26.863,60-60,60h-42.332
		c-6.01,0-11.249,4.091-12.707,9.921l-0.094,0.377c-1.687,6.749-8.555,11.114-15.722,9.282c-4.555-1.164-8.026-4.874-9.167-9.435
		L284.941,340l-5.075,20.299c-1.533,6.132-7.342,10.295-13.767,9.632c-5.443-0.562-9.851-4.701-11.178-10.01L249.941,340
		l-0.075,0.299c-1.533,6.132-7.342,10.295-13.766,9.632c-5.444-0.562-9.851-4.7-11.179-10.009c0-5.479-4.442-9.921-9.921-9.921h-30
		c-7.015,0-13.743-1.215-20-3.428V330l0,0c-55.228,0-100-44.771-100-100v-20V100c0-5.523-4.477-10-10-10H45c-5.523,0-10-4.477-10-10
		h40c11.046,0,20,8.954,20,20v80c0,16.569,13.431,30,30,30h25.5H165h240h6.5H425z"/>
	<path id="XMLID_2029_" style="fill:#605B52;" d="M167.361,440H185c0,11.046-8.954,20-20,20h-20l4.472-8.944
		C152.86,444.28,159.785,440,167.361,440z"/>
	<path id="XMLID_2032_" style="fill:#A08B6E;" d="M425,150v30v30c0,33.137-26.863,60-60,60h-49.546
		c-6.01,0-11.249,4.091-12.707,9.921l-0.094,0.377c-1.687,6.749-8.555,11.113-15.722,9.282c-4.555-1.164-8.026-4.874-9.167-9.435
		L277.727,280l-5.075,20.299c-1.533,6.132-7.342,10.295-13.767,9.632c-5.444-0.562-9.851-4.7-11.178-10.01L242.727,280l-0.075,0.299
		c-1.533,6.132-7.342,10.295-13.766,9.632c-5.511-0.569-9.961-4.804-11.227-10.208C216.306,273.944,210.935,270,205,270h-20
		c-7.015,0-20-2.234-20-2.234c-40.079-9.095-70-44.935-70-87.766l0,0c0,16.569,13.431,30,30,30l0,0h40h19.997
		c0.001,0,0.002,0,0.003,0h20.001h110.451H328h37c0.956,0,10.474-0.929,10.716-0.973C403.737,203.972,425,179.477,425,150z"/>
	<path id="XMLID_2140_" style="fill:#D1C19F;" d="M425,127.5V150c0,33.137-26.863,60-60,60h-49.546
		c-6.01,0-11.249,4.091-12.707,9.921l-0.094,0.377c-1.687,6.749-8.555,11.113-15.722,9.282c-4.556-1.164-8.026-4.874-9.167-9.435
		L277.727,220l-5.075,20.299c-1.533,6.132-7.342,10.295-13.767,9.632c-5.443-0.562-9.851-4.7-11.178-10.009L242.727,220
		l-0.075,0.299c-1.533,6.131-7.342,10.295-13.766,9.632c-5.443-0.562-9.851-4.7-11.179-10.009C216.249,214.091,211.01,210,205,210
		h-20c-33.137,0-60-26.863-60-60v-10c0,5.523,4.477,10,10,10h50h180h10l38-28.5c1.298-0.974,2.877-1.5,4.5-1.5
		C421.642,120,425,123.358,425,127.5z"/>
	<path id="XMLID_2135_" style="fill:#E5D8B5;" d="M305,150v1.091c-3.641,1.587-6.47,4.789-7.48,8.83l-0.094,0.377
		c-1.687,6.749-8.555,11.113-15.722,9.282c-4.556-1.164-8.026-4.874-9.167-9.435L272.5,160l-5.075,20.299
		c-1.533,6.132-7.342,10.295-13.767,9.632c-5.443-0.562-9.851-4.7-11.178-10.009L237.5,160l-0.075,0.299
		c-1.533,6.132-7.342,10.295-13.766,9.632c-5.443-0.562-9.851-4.7-11.179-10.009c-1.01-4.042-3.839-7.244-7.48-8.83V150H305z"/>
	<path id="XMLID_2118_" style="fill:#605B52;" d="M95,55c0,2.761-2.239,5-5,5s-5-2.239-5-5s2.239-5,5-5S95,52.239,95,55z"/>
	<path id="XMLID_2117_" style="fill:#968368;" d="M54.55,50v15c0,2.761-2.239,5-5,5H35c1.386-7.062,5.956-13.203,12.543-16.497
		L54.55,50z"/>
</g>
<g>
</g>
<g>
</g>
<g>
</g>
<g>
</g>
<g>
</g>
<g>
</g>
<g>
</g>
<g>
</g>
<g>
</g>
<g>
</g>
<g>
</g>
<g>
</g>
<g>
</g>
<g>
</g>
<g>
</g>
</svg>
